#Comment line ignore any data following # character 
#Hierarchical Translation and Rotation (.htr) file 
[Header]	
#Header keywords are followed by a single value 
FileType HTR		#Single word string
DataType HTRS		#Translation followed by rotation and scale data
FileVersion 1		#integer
NumSegments 84		#integer
NumFrames 2		#integer
DataFrameRate 30		#integer, data frame rate in this file
EulerRotationOrder ZYX
CalibrationUnits mm
RotationUnits Degrees
GlobalAxisofGravity Y
BoneLengthAxis Y
ScaleFactor 1.00
[SegmentNames&Hierarchy]
#CHILD	PARENT
MASTER GLOBAL
root MASTER
chest root
L_mid_tent01 root
R_mid_tent01 root
spine01 root
Bip01_Neck chest
L_humerus chest
R_humerus chest
weapon_bone chest
Bip01_Head Bip01_Neck
eye_left_bone Bip01_Head
eye_right_bone Bip01_Head
L_forearm L_humerus
L_front_hand L_forearm
L_weapon_bone L_forearm
L_front_hand01_01 L_front_hand
L_front_hand02_01 L_front_hand
L_front_hand03_01 L_front_hand
L_front_hand01_02 L_front_hand01_01
L_front_hand02_02 L_front_hand02_01
L_front_hand03_02 L_front_hand03_01
R_forearm R_humerus
R_front_hand R_forearm
R_weapon_bone R_forearm
R_front_hand01_01 R_front_hand
R_front_hand02_01 R_front_hand
R_front_hand03_01 R_front_hand
R_front_hand01_02 R_front_hand01_01
R_front_hand02_02 R_front_hand02_01
R_front_hand03_02 R_front_hand03_01
null_rope01_connect L_mid_tent01
Rope1_Seg01 null_rope01_connect
Rope1_Seg02 Rope1_Seg01
Rope1_Seg03 Rope1_Seg02
Rope1_Seg04 Rope1_Seg03
Rope1_Seg05 Rope1_Seg04
Rope1_Seg06 Rope1_Seg05
Rope1_Seg07 Rope1_Seg06
Rope1_Seg09 Rope1_Seg07
L_mid_hand01 Rope1_Seg09
L_mid_hand02 Rope1_Seg09
L_mid_hand03 Rope1_Seg09
null_rope02_connect R_mid_tent01
Rope2_Seg01 null_rope02_connect
Rope2_Seg02 Rope2_Seg01
Rope2_Seg03 Rope2_Seg02
Rope2_Seg04 Rope2_Seg03
Rope2_Seg05 Rope2_Seg04
Rope2_Seg06 Rope2_Seg05
Rope2_Seg07 Rope2_Seg06
Rope2_Seg09 Rope2_Seg07
R_mid_hand01 Rope2_Seg09
R_mid_hand02 Rope2_Seg09
R_mid_hand03 Rope2_Seg09
spine02 spine01
spine03 spine02
pelvis spine03
null_rope03_connect pelvis
null_rope04_connect pelvis
Rope3_Seg01 null_rope03_connect
Rope3_Seg02 Rope3_Seg01
Rope3_Seg03 Rope3_Seg02
Rope3_Seg04 Rope3_Seg03
Rope3_Seg05 Rope3_Seg04
Rope3_Seg06 Rope3_Seg05
Rope3_Seg07 Rope3_Seg06
Rope3_Seg08 Rope3_Seg07
Rope3_Seg09 Rope3_Seg08
R_rear_hand01 Rope3_Seg09
R_rear_hand02 Rope3_Seg09
R_rear_hand03 Rope3_Seg09
Rope4_Seg01 null_rope04_connect
Rope4_Seg02 Rope4_Seg01
Rope4_Seg03 Rope4_Seg02
Rope4_Seg04 Rope4_Seg03
Rope4_Seg05 Rope4_Seg04
Rope4_Seg06 Rope4_Seg05
Rope4_Seg07 Rope4_Seg06
Rope4_Seg08 Rope4_Seg07
Rope4_Seg09 Rope4_Seg08
L_rear_hand01 Rope4_Seg09
L_rear_hand02 Rope4_Seg09
L_rear_hand03 Rope4_Seg09
[BasePosition]
#SegmentName Tx, Ty, Tz, Rx, Ry, Rz, BoneLength
MASTER 0.000000 0.000000 0.000000 -90.000000 0.000000 0.000000 10.000000 
root 0.000000 0.000000 0.000000 0.000000 0.000000 0.000000 10.000000 
chest 0.000000 0.000000 0.000000 0.000000 0.000000 0.000000 10.000000 
L_mid_tent01 0.000000 0.000000 0.000000 0.000000 0.000000 0.000000 10.000000 
R_mid_tent01 0.000000 0.000000 0.000000 0.000000 0.000000 0.000000 10.000000 
spine01 0.000000 0.000000 0.000000 0.000000 0.000000 0.000000 10.000000 
Bip01_Neck 0.000000 0.000000 0.000000 0.000000 0.000000 0.000000 10.000000 
L_humerus 0.000000 0.000000 0.000000 0.000000 0.000000 0.000000 10.000000 
R_humerus 0.000000 0.000000 0.000000 0.000000 0.000000 0.000000 10.000000 
weapon_bone 0.000000 0.000000 0.000000 0.000000 0.000000 0.000000 10.000000 
Bip01_Head 0.000000 0.000000 0.000000 0.000000 0.000000 0.000000 10.000000 
eye_left_bone 0.000000 0.000000 0.000000 0.000000 0.000000 0.000000 10.000000 
eye_right_bone 0.000000 0.000000 0.000000 0.000000 0.000000 0.000000 10.000000 
L_forearm 0.000000 0.000000 0.000000 0.000000 0.000000 0.000000 10.000000 
L_front_hand 0.000000 0.000000 0.000000 0.000000 0.000000 0.000000 10.000000 
L_weapon_bone 0.000000 0.000000 0.000000 0.000000 0.000000 0.000000 10.000000 
L_front_hand01_01 0.000000 0.000000 0.000000 0.000000 0.000000 0.000000 10.000000 
L_front_hand02_01 0.000000 0.000000 0.000000 0.000000 0.000000 0.000000 10.000000 
L_front_hand03_01 0.000000 0.000000 0.000000 0.000000 0.000000 0.000000 10.000000 
L_front_hand01_02 0.000000 0.000000 0.000000 0.000000 0.000000 0.000000 10.000000 
L_front_hand02_02 0.000000 0.000000 0.000000 0.000000 0.000000 0.000000 10.000000 
L_front_hand03_02 0.000000 0.000000 0.000000 0.000000 0.000000 0.000000 10.000000 
R_forearm 0.000000 0.000000 0.000000 0.000000 0.000000 0.000000 10.000000 
R_front_hand 0.000000 0.000000 0.000000 0.000000 0.000000 0.000000 10.000000 
R_weapon_bone 0.000000 0.000000 0.000000 0.000000 0.000000 0.000000 10.000000 
R_front_hand01_01 0.000000 0.000000 0.000000 0.000000 0.000000 0.000000 10.000000 
R_front_hand02_01 0.000000 0.000000 0.000000 0.000000 0.000000 0.000000 10.000000 
R_front_hand03_01 0.000000 0.000000 0.000000 0.000000 0.000000 0.000000 10.000000 
R_front_hand01_02 0.000000 0.000000 0.000000 0.000000 0.000000 0.000000 10.000000 
R_front_hand02_02 0.000000 0.000000 0.000000 0.000000 0.000000 0.000000 10.000000 
R_front_hand03_02 0.000000 0.000000 0.000000 0.000000 0.000000 0.000000 10.000000 
null_rope01_connect 0.000000 0.000000 0.000000 0.000000 0.000000 0.000000 10.000000 
Rope1_Seg01 0.000000 0.000000 0.000000 0.000000 0.000000 0.000000 10.000000 
Rope1_Seg02 0.000000 0.000000 0.000000 0.000000 0.000000 0.000000 10.000000 
Rope1_Seg03 0.000000 0.000000 0.000000 0.000000 0.000000 0.000000 10.000000 
Rope1_Seg04 0.000000 0.000000 0.000000 0.000000 0.000000 0.000000 10.000000 
Rope1_Seg05 0.000000 0.000000 0.000000 0.000000 0.000000 0.000000 10.000000 
Rope1_Seg06 0.000000 0.000000 0.000000 0.000000 0.000000 0.000000 10.000000 
Rope1_Seg07 0.000000 0.000000 0.000000 0.000000 0.000000 0.000000 10.000000 
Rope1_Seg09 0.000000 0.000000 0.000000 0.000000 0.000000 0.000000 10.000000 
L_mid_hand01 0.000000 0.000000 0.000000 0.000000 0.000000 0.000000 10.000000 
L_mid_hand02 0.000000 0.000000 0.000000 0.000000 0.000000 0.000000 10.000000 
L_mid_hand03 0.000000 0.000000 0.000000 0.000000 0.000000 0.000000 10.000000 
null_rope02_connect 0.000000 0.000000 0.000000 0.000000 0.000000 0.000000 10.000000 
Rope2_Seg01 0.000000 0.000000 0.000000 0.000000 0.000000 0.000000 10.000000 
Rope2_Seg02 0.000000 0.000000 0.000000 0.000000 0.000000 0.000000 10.000000 
Rope2_Seg03 0.000000 0.000000 0.000000 0.000000 0.000000 0.000000 10.000000 
Rope2_Seg04 0.000000 0.000000 0.000000 0.000000 0.000000 0.000000 10.000000 
Rope2_Seg05 0.000000 0.000000 0.000000 0.000000 0.000000 0.000000 10.000000 
Rope2_Seg06 0.000000 0.000000 0.000000 0.000000 0.000000 0.000000 10.000000 
Rope2_Seg07 0.000000 0.000000 0.000000 0.000000 0.000000 0.000000 10.000000 
Rope2_Seg09 0.000000 0.000000 0.000000 0.000000 0.000000 0.000000 10.000000 
R_mid_hand01 0.000000 0.000000 0.000000 0.000000 0.000000 0.000000 10.000000 
R_mid_hand02 0.000000 0.000000 0.000000 0.000000 0.000000 0.000000 10.000000 
R_mid_hand03 0.000000 0.000000 0.000000 0.000000 0.000000 0.000000 10.000000 
spine02 0.000000 0.000000 0.000000 0.000000 0.000000 0.000000 10.000000 
spine03 0.000000 0.000000 0.000000 0.000000 0.000000 0.000000 10.000000 
pelvis 0.000000 0.000000 0.000000 0.000000 0.000000 0.000000 10.000000 
null_rope03_connect 0.000000 0.000000 0.000000 0.000000 0.000000 0.000000 10.000000 
null_rope04_connect 0.000000 0.000000 0.000000 0.000000 0.000000 0.000000 10.000000 
Rope3_Seg01 0.000000 0.000000 0.000000 0.000000 0.000000 0.000000 10.000000 
Rope3_Seg02 0.000000 0.000000 0.000000 0.000000 0.000000 0.000000 10.000000 
Rope3_Seg03 0.000000 0.000000 0.000000 0.000000 0.000000 0.000000 10.000000 
Rope3_Seg04 0.000000 0.000000 0.000000 0.000000 0.000000 0.000000 10.000000 
Rope3_Seg05 0.000000 0.000000 0.000000 0.000000 0.000000 0.000000 10.000000 
Rope3_Seg06 0.000000 0.000000 0.000000 0.000000 0.000000 0.000000 10.000000 
Rope3_Seg07 0.000000 0.000000 0.000000 0.000000 0.000000 0.000000 10.000000 
Rope3_Seg08 0.000000 0.000000 0.000000 0.000000 0.000000 0.000000 10.000000 
Rope3_Seg09 0.000000 0.000000 0.000000 0.000000 0.000000 0.000000 10.000000 
R_rear_hand01 0.000000 0.000000 0.000000 0.000000 0.000000 0.000000 10.000000 
R_rear_hand02 0.000000 0.000000 0.000000 0.000000 0.000000 0.000000 10.000000 
R_rear_hand03 0.000000 0.000000 0.000000 0.000000 0.000000 0.000000 10.000000 
Rope4_Seg01 0.000000 0.000000 0.000000 0.000000 0.000000 0.000000 10.000000 
Rope4_Seg02 0.000000 0.000000 0.000000 0.000000 0.000000 0.000000 10.000000 
Rope4_Seg03 0.000000 0.000000 0.000000 0.000000 0.000000 0.000000 10.000000 
Rope4_Seg04 0.000000 0.000000 0.000000 0.000000 0.000000 0.000000 10.000000 
Rope4_Seg05 0.000000 0.000000 0.000000 0.000000 0.000000 0.000000 10.000000 
Rope4_Seg06 0.000000 0.000000 0.000000 0.000000 0.000000 0.000000 10.000000 
Rope4_Seg07 0.000000 0.000000 0.000000 0.000000 0.000000 0.000000 10.000000 
Rope4_Seg08 0.000000 0.000000 0.000000 0.000000 0.000000 0.000000 10.000000 
Rope4_Seg09 0.000000 0.000000 0.000000 0.000000 0.000000 0.000000 10.000000 
L_rear_hand01 0.000000 0.000000 0.000000 0.000000 0.000000 0.000000 10.000000 
L_rear_hand02 0.000000 0.000000 0.000000 0.000000 0.000000 0.000000 10.000000 
L_rear_hand03 0.000000 0.000000 0.000000 0.000000 0.000000 0.000000 10.000000 
#Beginning of Data. Separated by tabs
#Fr	Tx	Ty	Tz	Rx	Ry	Rz	SF
[MASTER]
13 0.000000 0.000000 0.000000 0.001660 0.001660 0.001660 0.000000
14 0.000000 0.000000 0.000000 0.001660 0.001660 0.001660 0.000000
[root]
13 -37.236355 -51.743874 3909.172363 -94.873512 6.237340 -95.686111 3909.691895
14 -36.776058 -51.989796 4151.614258 -96.032845 6.699518 -94.460243 4152.102539
[chest]
13 -84.512650 -34.090519 0.000000 2.178518 -25.410025 159.570099 91.129311
14 -84.512650 -34.090519 0.000000 -5.694998 -29.121704 165.656769 91.129311
[L_mid_tent01]
13 27.299540 22.177698 -249.918213 2.824436 18.090515 79.924355 252.381119
14 27.299543 22.177702 -249.918213 3.272614 27.607100 80.589035 252.381119
[R_mid_tent01]
13 23.228794 24.509907 226.238495 165.216690 -24.463787 78.877197 228.744751
14 23.228794 24.509907 226.238495 163.368713 -36.515495 83.087059 228.744751
[spine01]
13 -0.361383 -0.195265 0.000000 0.002062 0.001122 32.879829 0.410763
14 -0.361383 -0.195265 0.000000 0.002062 0.001122 32.879829 0.410763
[Bip01_Neck]
13 165.484543 71.581718 0.000119 176.643677 -1.657967 43.431911 180.302734
14 165.484543 71.581718 0.000119 176.643677 -1.657967 43.431911 180.302734
[L_humerus]
13 -13.983130 -135.272980 -120.471481 158.551743 33.994732 -69.062622 181.680161
14 -13.983130 -135.272980 -120.471481 145.070038 57.429008 -84.062775 181.680161
[R_humerus]
13 -13.983309 -135.273102 125.287651 -176.119629 -10.074847 -88.284981 184.909012
14 -13.983309 -135.273102 125.287651 -174.613785 -10.333855 -92.180222 184.909012
[weapon_bone]
13 235.964890 -300.705902 0.000000 0.000000 -89.951546 -128.212341 382.234833
14 235.964890 -300.705902 0.000000 0.000000 -89.951546 -128.212341 382.234833
[Bip01_Head]
13 213.416885 185.791626 10.791734 32.181015 0.098416 -43.899757 283.163849
14 213.370499 185.920105 9.132723 32.548195 0.800089 -43.894203 283.154846
[eye_left_bone]
13 -24.626970 125.451866 -64.772606 0.000000 -90.000000 -99.840431 143.318359
14 -24.626970 125.451866 -64.772606 0.000000 -90.000000 -99.840431 143.318359
[eye_right_bone]
13 -24.626970 125.451866 64.327362 0.000000 -89.965736 80.156380 143.117676
14 -24.626970 125.451866 64.327362 0.000000 -89.965736 80.156380 143.117676
[L_forearm]
13 322.776093 0.000000 -0.000119 0.000119 -0.002344 -95.807457 322.776093
14 322.776093 0.000000 -0.000119 0.000119 -0.002344 -95.807457 322.776093
[L_front_hand]
13 241.149185 -0.042021 -3.300071 -178.667953 -1.835447 -27.422350 241.171753
14 241.149185 -0.042021 -3.300071 -178.667953 -1.835447 -27.422350 241.171753
[L_weapon_bone]
13 156.183838 0.000000 0.000000 0.000014 0.000007 0.000001 156.183838
14 156.183838 0.000000 0.000000 0.000014 0.000007 0.000001 156.183838
[L_front_hand01_01]
13 86.095154 20.947098 -0.655860 -0.273295 -0.533469 64.985298 88.609184
14 86.095154 20.947098 -0.655860 -0.273650 -0.533287 65.061531 88.609184
[L_front_hand02_01]
13 86.935165 -11.437475 24.513514 140.772385 -54.262844 -45.183468 91.046425
14 86.935165 -11.437475 24.513514 140.858582 -54.305305 -45.287018 91.046425
[L_front_hand03_01]
13 86.637497 -14.123976 -20.424902 -141.183044 52.494118 -47.265888 90.126129
14 86.637497 -14.123976 -20.424902 -141.258987 52.537949 -47.363300 90.126129
[L_front_hand01_02]
13 71.020905 -0.000179 0.000030 0.000315 -0.002326 -105.414528 71.020905
14 71.020905 -0.000179 0.000030 0.000315 -0.002326 -105.409866 71.020905
[L_front_hand02_02]
13 71.020927 -0.000119 0.000060 0.000315 -0.002326 -105.414528 71.020927
14 71.020927 -0.000119 0.000060 0.000315 -0.002326 -105.409866 71.020927
[L_front_hand03_02]
13 71.020905 -0.000060 0.000060 0.000315 -0.002326 -105.414528 71.020905
14 71.020905 -0.000060 0.000060 0.000315 -0.002326 -105.409866 71.020905
[R_forearm]
13 322.776428 -0.000060 0.000030 0.209504 0.012586 -94.339050 322.776428
14 322.776428 -0.000060 0.000030 0.209504 0.012586 -94.339050 322.776428
[R_front_hand]
13 238.847015 -0.006795 2.210259 -2.635298 -10.645461 -26.312506 238.857239
14 238.847015 -0.006795 2.210259 -2.635298 -10.645461 -26.312506 238.857239
[R_weapon_bone]
13 155.664093 0.002503 -0.000030 0.003487 0.001180 -90.988930 155.664078
14 155.664093 0.002503 -0.000030 0.003487 0.001180 -90.988930 155.664078
[R_front_hand01_01]
13 87.624611 14.231146 22.918642 -139.406311 -53.422413 43.599293 91.683487
14 87.624611 14.231146 22.918642 -138.707092 -52.961746 42.720669 91.683487
[R_front_hand02_01]
13 89.356956 14.367283 -19.491137 140.210251 51.852013 46.267582 92.579636
14 89.356956 14.367283 -19.491137 139.537384 51.404167 45.405891 92.579636
[R_front_hand03_01]
13 87.286232 -22.307278 -0.143439 0.071981 -0.448622 -63.915909 90.091743
14 87.286232 -22.307278 -0.143439 0.065057 -0.451640 -63.223503 90.091743
[R_front_hand01_02]
13 71.020905 0.000060 0.000119 0.002323 -0.000334 106.381714 71.020905
14 71.020905 0.000060 0.000119 0.002323 -0.000334 106.381714 71.020905
[R_front_hand02_02]
13 71.020844 -0.000030 -0.000119 0.002323 -0.000334 106.381714 71.020836
14 71.020844 -0.000030 -0.000119 0.002323 -0.000334 106.381714 71.020836
[R_front_hand03_02]
13 71.020905 0.000000 0.000030 0.002323 -0.000334 106.381714 71.020905
14 71.020905 0.000000 0.000030 0.002323 -0.000334 106.381714 71.020905
[null_rope01_connect]
13 328.732483 0.000000 -0.000238 -158.451065 -65.529488 161.848663 328.732483
14 328.732483 0.000000 -0.000238 -166.407974 -55.585983 169.016037 328.732483
[Rope1_Seg01]
13 0.000021 -0.000076 -0.000097 -117.930008 74.573586 -108.397530 0.000125
14 0.000023 -0.000076 -0.000118 159.670273 48.533489 -161.573898 0.000142
[Rope1_Seg02]
13 139.999863 -0.000179 0.000000 -12.376199 11.633789 16.892330 139.999863
14 139.999863 -0.000179 0.000000 -7.697071 -14.794442 28.094860 139.999863
[Rope1_Seg03]
13 139.999924 0.000060 -0.000060 -9.272601 11.410048 21.475286 139.999924
14 139.999924 0.000060 -0.000060 -1.742848 -7.678373 14.887854 139.999924
[Rope1_Seg04]
13 139.999924 -0.000060 -0.000119 6.793574 -18.119207 -6.769062 139.999924
14 139.999924 -0.000060 -0.000119 -2.952374 -22.508530 6.261389 139.999924
[Rope1_Seg05]
13 139.999832 0.000119 -0.000060 8.474231 -32.746719 -14.757718 139.999832
14 139.999832 0.000119 -0.000060 -16.771276 -34.286461 7.226247 139.999832
[Rope1_Seg06]
13 139.999954 0.000119 -0.000060 -0.400689 -15.824820 -4.077940 139.999954
14 139.999954 0.000119 -0.000060 -17.294003 -18.639530 -0.529901 139.999954
[Rope1_Seg07]
13 139.999985 0.000060 0.000000 -0.355267 -2.854753 -0.766212 139.999985
14 139.999985 0.000060 0.000000 -6.025908 -4.615195 -1.589278 139.999985
[Rope1_Seg09]
13 121.602913 0.000119 -0.000089 -89.793175 -1.359789 0.847147 121.602913
14 121.602913 0.000119 -0.000089 -89.793175 -1.359789 0.847147 121.602913
[L_mid_hand01]
13 103.859421 1.038730 8.195221 112.987694 -50.601242 -18.681463 104.187431
14 103.859421 1.038730 8.195221 115.405037 -54.702587 -21.718954 104.187431
[L_mid_hand02]
13 105.572853 -4.139662 -10.864139 -153.018738 36.866020 -49.082432 106.211075
14 105.572853 -4.139662 -10.864139 -156.173569 38.796780 -54.226383 106.211075
[L_mid_hand03]
13 104.641464 17.579376 -3.913581 -11.755007 14.733719 54.618237 106.179977
14 104.641464 17.579376 -3.913581 -10.557021 15.605448 59.191418 106.179977
[null_rope02_connect]
13 328.732849 0.000179 -0.000119 -145.753082 68.596306 26.092239 328.732849
14 328.732849 0.000179 -0.000119 -154.346085 57.391655 19.922478 328.732849
[Rope2_Seg01]
13 -0.000104 0.000126 0.000069 86.957222 69.357658 -154.961197 0.000177
14 -0.000113 0.000124 0.000062 -141.006042 85.519966 -28.239773 0.000179
[Rope2_Seg02]
13 139.999741 -0.000060 -0.000119 1.250245 -4.483038 -5.186840 139.999756
14 139.999741 -0.000060 -0.000119 1.560583 -11.569802 -0.176303 139.999756
[Rope2_Seg03]
13 140.000107 0.000030 0.000000 1.954291 -8.262896 -9.378727 140.000107
14 140.000107 0.000030 0.000000 1.103950 -16.468828 -1.987188 140.000107
[Rope2_Seg04]
13 139.999802 0.000000 -0.000060 1.807879 -12.201151 -13.418124 139.999802
14 139.999802 0.000000 -0.000060 -0.895490 -14.697196 -0.506163 139.999802
[Rope2_Seg05]
13 139.999985 -0.000060 0.000119 1.428679 13.876654 16.086090 139.999985
14 139.999985 -0.000060 0.000119 4.709536 5.803048 14.047181 139.999985
[Rope2_Seg06]
13 139.999893 -0.000030 -0.000119 -0.734587 8.951473 10.356578 139.999893
14 139.999893 -0.000030 -0.000119 4.062516 6.521858 12.116175 139.999893
[Rope2_Seg07]
13 139.999893 0.000060 -0.000060 -0.882561 4.065358 4.950557 139.999893
14 139.999893 0.000060 -0.000060 2.063398 3.373755 7.366622 139.999893
[Rope2_Seg09]
13 121.338966 0.000089 -0.000060 33.793236 -1.359788 -0.847141 121.338966
14 121.338966 0.000089 -0.000060 33.793236 -1.359788 -0.847141 121.338966
[R_mid_hand01]
13 104.680779 11.144459 -10.335981 -37.204075 31.906813 37.576267 105.778534
14 104.680779 11.144459 -10.335981 -36.578453 32.644405 38.740585 105.778534
[R_mid_hand02]
13 104.070427 2.443552 8.231699 70.367462 -42.427391 14.067809 104.424065
14 104.070427 2.443552 8.231699 69.973358 -43.581707 14.639651 104.424065
[R_mid_hand03]
13 106.028137 -11.221827 -5.996406 -169.893616 12.226658 -47.211018 106.788818
14 106.028137 -11.221827 -5.996406 -170.161224 12.441350 -48.449898 106.788818
[spine02]
13 129.756927 0.001550 0.000119 -1.023899 -3.926965 6.770993 129.756927
14 129.756927 0.001550 0.000119 -1.023899 -3.926965 6.770993 129.756927
[spine03]
13 78.613892 0.087447 -4.898856 1.040681 4.146420 4.212376 78.766426
14 78.613892 0.087461 -4.898854 1.040681 4.146420 4.212376 78.766426
[pelvis]
13 169.435242 0.051022 0.000000 0.019518 -0.190233 -10.721436 169.435257
14 169.435242 0.051022 0.000000 0.019518 -0.190233 -10.721436 169.435257
[null_rope03_connect]
13 -1.257226 -2.466202 137.391083 -135.693680 -82.850815 -173.864380 137.418976
14 -1.257226 -2.466202 137.391083 -150.165710 -82.784142 -159.846985 137.418976
[null_rope04_connect]
13 -1.259640 -2.480268 -137.844437 -135.693680 -82.850815 -173.864380 137.872513
14 -1.259640 -2.480268 -137.844437 -150.165710 -82.784142 -159.846985 137.872513
[Rope3_Seg01]
13 0.000042 -0.000047 0.000166 -179.132462 50.142567 -127.983864 0.000178
14 0.000045 -0.000046 0.000180 -175.789169 49.126011 -125.622055 0.000191
[Rope3_Seg02]
13 139.999924 -0.000119 0.000060 0.667383 -4.401572 -7.502944 139.999924
14 139.999924 -0.000119 0.000060 4.156099 -2.936407 -14.823792 139.999924
[Rope3_Seg03]
13 139.999924 -0.000119 0.000119 0.919609 -3.714676 -7.649473 139.999924
14 139.999924 -0.000119 0.000119 3.484013 -1.024819 -18.331343 139.999924
[Rope3_Seg04]
13 139.999924 0.000119 0.000000 1.222353 -1.995259 -8.010127 139.999924
14 139.999924 0.000119 0.000000 0.889932 -2.492997 -15.489404 139.999924
[Rope3_Seg05]
13 139.999924 -0.000238 0.000060 -0.895346 -7.772735 -3.219631 139.999924
14 139.999924 -0.000238 0.000060 1.868704 -18.589720 1.209538 139.999924
[Rope3_Seg06]
13 139.999893 -0.000119 -0.000060 -0.785530 -9.441250 -0.082331 139.999893
14 139.999893 -0.000119 -0.000060 3.403713 -14.643351 3.735542 139.999893
[Rope3_Seg07]
13 139.999771 0.000060 -0.000119 0.269725 -5.492887 -1.046121 139.999771
14 139.999771 0.000060 -0.000119 2.422065 -6.933419 0.945226 139.999771
[Rope3_Seg08]
13 139.999985 -0.000060 0.000000 0.518497 -3.427936 -0.736251 139.999985
14 139.999985 -0.000060 0.000000 1.832457 -3.992515 0.719792 139.999985
[Rope3_Seg09]
13 90.185997 -0.000179 -0.000060 89.793228 -1.359877 -0.847183 90.185997
14 90.185997 -0.000179 -0.000060 89.793228 -1.359877 -0.847183 90.185997
[R_rear_hand01]
13 103.366196 -6.073594 -10.757982 -165.129333 19.906294 -41.459843 104.101845
14 103.366196 -6.073594 -10.757982 -166.165070 20.624775 -44.436913 104.101845
[R_rear_hand02]
13 100.509819 12.039542 -7.992327 -30.361923 25.330694 39.162529 101.543350
14 100.509819 12.039542 -7.992327 -29.134800 26.762835 41.953510 101.543350
[R_rear_hand03]
13 101.539970 5.215704 5.435467 82.326164 -42.112499 9.027012 101.819031
14 101.539970 5.215704 5.435467 81.948608 -44.972134 9.574180 101.819031
[Rope4_Seg01]
13 0.000021 -0.000035 -0.000236 38.288883 44.194324 -124.331657 0.000239
14 0.000023 -0.000031 -0.000243 39.221935 33.417885 -124.494377 0.000246
[Rope4_Seg02]
13 139.999985 0.000060 0.000119 -0.282627 10.045595 -3.911354 139.999985
14 139.999985 0.000060 0.000119 -2.359205 12.633888 -10.420842 139.999985
[Rope4_Seg03]
13 139.999924 0.000000 -0.000238 0.421095 6.040703 -1.813624 139.999924
14 139.999924 0.000000 -0.000238 -0.148008 7.263093 -5.480857 139.999924
[Rope4_Seg04]
13 139.999985 0.000000 0.000119 0.426202 3.709100 -0.642676 139.999985
14 139.999985 0.000000 0.000119 0.299057 4.087161 -3.041480 139.999985
[Rope4_Seg05]
13 139.999802 -0.000060 -0.000119 0.826358 3.206273 -2.538371 139.999802
14 139.999802 -0.000060 -0.000119 0.685996 5.616683 -4.838662 139.999802
[Rope4_Seg06]
13 139.999924 0.000000 0.000060 1.401838 3.597994 -4.612135 139.999924
14 139.999924 0.000000 0.000060 1.559245 8.364266 -7.780899 139.999924
[Rope4_Seg07]
13 139.999802 0.000000 0.000000 1.513001 3.392574 -4.477444 139.999802
14 139.999802 0.000000 0.000000 2.109641 6.956236 -6.881765 139.999802
[Rope4_Seg08]
13 139.999924 0.000000 0.000119 -0.439149 2.340602 -2.926215 139.999924
14 139.999924 0.000000 0.000119 0.278917 4.429646 -4.740336 139.999924
[Rope4_Seg09]
13 90.185791 0.000060 0.000060 -135.617828 2.228885 0.850567 90.185791
14 90.185791 0.000060 0.000060 -135.617828 2.228885 0.850567 90.185791
[L_rear_hand01]
13 101.696655 -8.392275 -7.654577 -23.837053 -31.497862 127.196869 102.329041
14 101.696655 -8.392275 -7.654577 -21.399742 -33.105404 122.636429 102.329041
[L_rear_hand02]
13 102.726799 -1.568258 5.773216 79.940979 55.428291 167.825531 102.900848
14 102.726799 -1.568258 5.773216 78.723869 59.531788 166.383698 102.900848
[L_rear_hand03]
13 104.552910 9.721220 -10.420293 -170.300186 -22.788523 -124.406990 105.519653
14 104.552910 9.721220 -10.420293 -172.062347 -23.429159 -119.922234 105.519653
